<svg width="16" height="16" viewBox="0 0 16 16" fill="none" xmlns="http://www.w3.org/2000/svg">
<path fill-rule="evenodd" clip-rule="evenodd" d="M11.0381 9.94905L13.9981 12.909L12.9374 13.9697L9.98176 11.014C9.14925 11.6334 8.11743 12 7 12C4.23858 12 2 9.76142 2 7C2 4.23858 4.23858 2 7 2C9.76142 2 12 4.23858 12 7C12 8.10284 11.6429 9.12229 11.0381 9.94905ZM7 11C9.20914 11 11 9.20914 11 7C11 4.79086 9.20914 3 7 3C4.79086 3 3 4.79086 3 7C3 9.20914 4.79086 11 7 11Z" fill="#7F8B91" fill-opacity="0.9"/>
</svg>
